ply
format ascii 1.0
element vertex 64
property float x
property float y
property float z
end_header
1.0000 1.0000 0.0845
2.0000 1.0000 0.1366
3.0000 1.0000 0.1881
4.0000 1.0000 0.2207
5.0000 1.0000 0.2207
6.0000 1.0000 0.1881
7.0000 1.0000 0.1366
8.0000 1.0000 0.0845
1.0000 2.0000 0.1366
2.0000 2.0000 0.2207
3.0000 2.0000 0.3040
4.0000 2.0000 0.3567
5.0000 2.0000 0.3567
6.0000 2.0000 0.3040
7.0000 2.0000 0.2207
8.0000 2.0000 0.1366
1.0000 3.0000 0.1881
2.0000 3.0000 0.3040
3.0000 3.0000 0.4186
4.0000 3.0000 0.4912
5.0000 3.0000 0.4912
6.0000 3.0000 0.4186
7.0000 3.0000 0.3040
8.0000 3.0000 0.1881
1.0000 4.0000 0.2207
2.0000 4.0000 0.3567
3.0000 4.0000 0.4912
4.0000 4.0000 0.5765
5.0000 4.0000 0.5765
6.0000 4.0000 0.4912
7.0000 4.0000 0.3567
8.0000 4.0000 0.2207
1.0000 5.0000 0.2207
2.0000 5.0000 0.3567
3.0000 5.0000 0.4912
4.0000 5.0000 0.5765
5.0000 5.0000 0.5765
6.0000 5.0000 0.4912
7.0000 5.0000 0.3567
8.0000 5.0000 0.2207
1.0000 6.0000 0.1881
2.0000 6.0000 0.3040
3.0000 6.0000 0.4186
4.0000 6.0000 0.4912
5.0000 6.0000 0.4912
6.0000 6.0000 0.4186
7.0000 6.0000 0.3040
8.0000 6.0000 0.1881
1.0000 7.0000 0.1366
2.0000 7.0000 0.2207
3.0000 7.0000 0.3040
4.0000 7.0000 0.3567
5.0000 7.0000 0.3567
6.0000 7.0000 0.3040
7.0000 7.0000 0.2207
8.0000 7.0000 0.1366
1.0000 8.0000 0.0845
2.0000 8.0000 0.1366
3.0000 8.0000 0.1881
4.0000 8.0000 0.2207
5.0000 8.0000 0.2207
6.0000 8.0000 0.1881
7.0000 8.0000 0.1366
8.0000 8.0000 0.0845
